#!OML:ASF X:\für Bonn\!DataBase\2005_08_11_Bastian_Final\c3d\Bastian.ASF
:FULLY-SPECIFIED
:DEGREES
154
root -5.56173 17.0155 0.439408 531.725 46.3029 -175.42
lowerback 28.0522 -2.32107 -2.53998
upperback 17.7989 -0.0161438 1.66026
thorax 4.72446 1.08725 3.38982
lowerneck -16.0245 -13.1836 -23.0266
upperneck -6.85523 -14.0327 37.1966
head 6.17164 -5.23262 15.3007
rclavicle -1.43125e-014 -4.09248e-014
rhumerus -28.611 2.90878 -83.792
rradius 30.2899
rwrist 2.22836
rhand -14.0648 2.90568
rfingers 7.12502
rthumb 12.0666 -26.7264
lclavicle -1.43125e-014 -4.09248e-014
lhumerus -8.60295 -40.0034 92.7208
lradius 65.1609
lwrist 8.53067
lhand -17.6152 -7.28719
lfingers 7.12502
lthumb 8.64169 22.5159
rfemur -31.1859 3.98738 21.9767
rtibia 50.9757
rfoot -19.301 -8.78678
rtoes -13.0288
lfemur 2.65199 3.13061 -17.4726
ltibia 39.4156
lfoot -22.6768 -2.22914
ltoes -7.19675
155
root -5.51731 17.0063 0.372772 531.659 46.4015 -175.504
lowerback 28.0565 -2.40865 -2.40722
upperback 17.8274 -0.0938078 1.66502
thorax 4.75763 1.06083 3.33841
lowerneck -16.1986 -13.195 -22.8392
upperneck -6.77378 -14.061 37.0944
head 6.2002 -5.2305 15.2033
rclavicle 3.57812e-015 1.60953e-014
rhumerus -28.7554 2.81899 -83.7366
rradius 30.0488
rwrist 2.11117
rhand -14.1041 2.79517
rfingers 7.12502
rthumb 12.0287 -26.8391
lclavicle 3.57812e-015 1.60953e-014
lhumerus -8.05072 -40.1376 92.5296
lradius 65.0806
lwrist 8.52291
lhand -17.691 -7.36825
lfingers 7.12502
lthumb 8.56855 22.4379
rfemur -31.3083 4.03008 21.7647
rtibia 49.7652
rfoot -19.2739 -8.80265
rtoes -13.8124
lfemur 3.01555 3.15419 -17.5944
ltibia 39.345
lfoot -22.9625 -2.19765
ltoes -7.1104
156
root -5.47127 16.9957 0.30609 531.658 46.5005 -175.529
lowerback 28.0321 -2.4957 -2.29886
upperback 17.8549 -0.178307 1.71761
thorax 4.80479 1.02408 3.35536
lowerneck -16.4055 -13.1927 -22.6941
upperneck -6.66126 -14.0639 36.98
head 6.23698 -5.21267 15.1167
rclavicle 3.97818e-014 -7.48549e-014
rhumerus -28.8829 2.84458 -83.6519
rradius 29.808
rwrist 1.97504
rhand -14.0937 2.73632
rfingers 7.12502
rthumb 12.0387 -26.8974
lclavicle 3.97818e-014 -7.48549e-014
lhumerus -7.53078 -40.1734 92.4077
lradius 64.9794
lwrist 8.51922
lhand -17.7417 -7.45833
lfingers 7.12502
lthumb 8.51964 22.3498
rfemur -31.4217 4.09845 21.5906
rtibia 48.5612
rfoot -19.258 -8.82601
rtoes -14.2943
lfemur 3.3611 3.19537 -17.6613
ltibia 39.2824
lfoot -23.2234 -2.17367
ltoes -6.99276
157
root -5.42376 16.9856 0.240393 531.64 46.5821 -175.559
lowerback 28.0041 -2.58092 -2.176
upperback 17.896 -0.252529 1.75553
thorax 4.86822 0.996488 3.34602
lowerneck -16.6109 -13.2014 -22.5327
upperneck -6.56195 -14.0835 36.881
head 6.27624 -5.2025 15.0295
rclavicle -3.05631e-015 1.2921e-014
rhumerus -28.9885 2.83067 -83.5945
rradius 29.5668
rwrist 1.88456
rhand -14.0752 2.71803
rfingers 7.12502
rthumb 12.0566 -26.9147
lclavicle -3.05631e-015 1.2921e-014
lhumerus -7.00151 -40.2532 92.251
lradius 64.8721
lwrist 8.54963
lhand -17.7868 -7.61159
lfingers 7.12502
lthumb 8.47609 22.1983
rfemur -31.5009 4.16815 21.4092
rtibia 47.3712
rfoot -19.243 -8.87611
rtoes -14.5574
lfemur 3.71531 3.20646 -17.731
ltibia 39.2205
lfoot -23.4851 -2.16509
ltoes -6.8902
158
root -5.3751 16.9745 0.176287 531.607 46.6434 -175.619
lowerback 27.9926 -2.6569 -2.09365
upperback 17.9295 -0.324499 1.79658
thorax 4.91684 0.966225 3.36233
lowerneck -16.8138 -13.2104 -22.3735
upperneck -6.47982 -14.0989 36.7845
head 6.30949 -5.19071 14.9449
rclavicle 2.28602e-015 -6.75868e-015
rhumerus -29.0682 2.73209 -83.5184
rradius 29.2958
rwrist 1.9263
rhand -14.0483 2.79514
rfingers 7.12502
rthumb 12.0826 -26.836
lclavicle 2.28602e-015 -6.75868e-015
lhumerus -6.50644 -40.2954 92.1386
lradius 64.7696
lwrist 8.53886
lhand -17.8063 -7.72719
lfingers 7.12502
lthumb 8.45726 22.0835
rfemur -31.5782 4.25 21.1911
rtibia 46.2035
rfoot -19.2488 -8.94782
rtoes -14.6674
lfemur 4.05243 3.22153 -17.812
ltibia 39.1695
lfoot -23.7282 -2.17833
ltoes -6.83329
159
root -5.32447 16.9634 0.113389 531.597 46.6873 -175.652
lowerback 27.991 -2.72765 -2.01676
upperback 17.9552 -0.391975 1.84897
thorax 4.95165 0.936896 3.39299
lowerneck -16.9777 -13.2074 -22.2018
upperneck -6.40704 -14.1042 36.6723
head 6.32643 -5.17917 14.8536
rclavicle -6.01324e-015 4.30369e-014
rhumerus -29.1335 2.65406 -83.4459
rradius 28.9932
rwrist 2.02806
rhand -14.0092 2.90018
rfingers 7.12502
rthumb 12.1202 -26.7288
lclavicle -6.01324e-015 4.30369e-014
lhumerus -6.06617 -40.2989 92.0598
lradius 64.6836
lwrist 8.55601
lhand -17.787 -7.88158
lfingers 7.12502
lthumb 8.47593 21.9283
rfemur -31.6351 4.33281 20.9944
rtibia 45.0593
rfoot -19.2621 -8.99404
rtoes -14.8195
lfemur 4.38636 3.22177 -17.8637
ltibia 39.1241
lfoot -23.9588 -2.2242
ltoes -6.59551
160
root -5.27185 16.9515 0.0515408 531.569 46.7037 -175.688
lowerback 28.0108 -2.79942 -1.96177
upperback 17.9818 -0.462937 1.90582
thorax 4.97954 0.904614 3.44198
lowerneck -17.1735 -13.201 -22.0294
upperneck -6.2953 -14.1094 36.5498
head 6.35827 -5.16353 14.7587
rclavicle 5.23798e-014 -3.35946e-014
rhumerus -29.1973 2.57217 -83.3645
rradius 28.7239
rwrist 2.1476
rhand -13.9382 3.00205
rfingers 7.12502
rthumb 12.1887 -26.6228
lclavicle 5.23798e-014 -3.35946e-014
lhumerus -5.67187 -40.2645 92.0103
lradius 64.6109
lwrist 8.48227
lhand -17.7408 -7.9418
lfingers 7.12502
lthumb 8.52045 21.8663
rfemur -31.6569 4.43565 20.7817
rtibia 43.943
rfoot -19.3041 -9.01491
rtoes -14.8669
lfemur 4.72266 3.2454 -17.896
ltibia 39.0935
lfoot -24.1992 -2.28413
ltoes -6.61881
